<svg xmlns="http://www.w3.org/2000/svg" viewBox="0 0 96 96" width="96" height="96">
  <title>Aurora</title>
  <!-- deep-space rounded-square ground (Empyrean void) -->
  <rect x="0" y="0" width="96" height="96" rx="20" fill="#0A0C12"/>
  <!-- the Aurora mark, emerald, scaled slightly in for padding -->
  <g transform="translate(48 48) scale(0.86) translate(-48 -48)"
     fill="none" stroke="#34D399" stroke-linecap="round" stroke-linejoin="round">
    <circle cx="48" cy="48" r="42" stroke-width="1.4"/>
    <circle cx="48" cy="48" r="38" stroke-width="1" opacity="0.22"/>
    <g stroke-width="1" opacity="0.42">
      <line x1="48" y1="9" x2="48" y2="20"/><line x1="48" y1="76" x2="48" y2="87"/>
      <line x1="9" y1="48" x2="20" y2="48"/><line x1="76" y1="48" x2="87" y2="48"/>
      <line x1="20.4" y1="20.4" x2="28.2" y2="28.2"/><line x1="75.6" y1="20.4" x2="67.8" y2="28.2"/>
      <line x1="20.4" y1="75.6" x2="28.2" y2="67.8"/><line x1="75.6" y1="75.6" x2="67.8" y2="67.8"/>
    </g>
    <g stroke-width="1" opacity="0.22">
      <line x1="63.4" y1="10.1" x2="59.9" y2="20.4"/><line x1="85.9" y1="32.6" x2="75.6" y2="36.1"/>
      <line x1="85.9" y1="63.4" x2="75.6" y2="59.9"/><line x1="63.4" y1="85.9" x2="59.9" y2="75.6"/>
      <line x1="32.6" y1="85.9" x2="36.1" y2="75.6"/><line x1="10.1" y1="63.4" x2="20.4" y2="59.9"/>
      <line x1="10.1" y1="32.6" x2="20.4" y2="36.1"/><line x1="32.6" y1="10.1" x2="36.1" y2="20.4"/>
    </g>
    <path d="M48 24 L54 42 L72 48 L54 54 L48 72 L42 54 L24 48 L42 42 Z" stroke-width="1.8"/>
    <path d="M36 48 Q48 39 60 48 Q48 57 36 48 Z" stroke-width="1.4"/>
    <circle cx="48" cy="48" r="3.4" fill="#34D399" stroke="none"/>
  </g>
</svg>
